
      <svg data-logo="logo" xmlns="http://www.w3.org/2000/svg" viewBox="0 0 275 43">
        <g id="logogram" transform="translate(0, 1) rotate(0) "><path d="M37.7824 2.31575C38.7075 1.35327 39.964 0.812561 41.2724 0.812561C47.159 0.812561 52.7065 0.812564 58.1696 0.812576C69.1575 0.812599 74.6597 14.6328 66.8901 22.7155L49.9661 40.3216C49.1892 41.1299 47.8607 40.5574 47.8607 39.4143V23.9075L49.8165 21.8728C51.3704 20.2563 50.2699 17.4922 48.0723 17.4922H23.1939L37.7824 2.31575Z" fill="white"/><path d="M33.2722 39.0841C32.347 40.0466 31.0905 40.5873 29.7821 40.5873C23.8955 40.5873 18.348 40.5873 12.8849 40.5873C1.89705 40.5872 -3.60514 26.7671 4.16443 18.6843L21.0884 1.07826C21.8654 0.269982 23.1938 0.842438 23.1938 1.98551L23.1939 17.4922L21.238 19.527C19.6841 21.1436 20.7846 23.9076 22.9822 23.9076L47.8607 23.9075L33.2722 39.0841Z" fill="white"/></g>
        <g id="logotype" transform="translate(77, 8.5)"><path fill="#ffffff" d="M15.03 26L8.03 26L8.03 1.15L30.08 1.15L30.08 6.33L15.03 6.33L15.03 11.72L29.31 11.72L29.31 16.69L15.03 16.69L15.03 26ZM39.64 5.70L32.91 5.70L32.91 0.80L39.64 0.80L39.64 5.70ZM39.64 26L32.84 26L32.84 8.01L39.64 8.01L39.64 26ZM50.07 26L43.28 26L43.28 8.01L49.96 8.01L49.96 9.72Q52.20 7.59 56.54 7.59L56.54 7.59Q57.98 7.59 59.48 7.90Q60.99 8.22 62.25 9.01Q63.51 9.79 64.29 11.18Q65.08 12.56 65.08 14.66L65.08 14.66L65.08 26L58.29 26L58.29 15.36Q58.29 13.75 57.17 13.03Q56.05 12.31 54.20 12.31L54.20 12.31Q52.34 12.31 51.22 13.03Q50.10 13.75 50.07 15.36L50.07 15.36L50.07 26ZM75.97 26.35L75.97 26.35Q72.29 26.35 70.02 24.93Q67.74 23.52 67.74 20.86L67.74 20.86Q67.74 18.68 69.42 17.20Q71.10 15.71 75.02 15.32L75.02 15.32L82.55 14.59L82.55 14.41Q82.55 11.96 78.80 11.96L78.80 11.96Q77.09 11.96 76.12 12.47Q75.16 12.98 74.81 14.10L74.81 14.10L67.99 13.61Q68.41 12.00 69.63 10.63Q70.86 9.27 73.13 8.43Q75.41 7.59 78.91 7.59L78.91 7.59Q83.98 7.59 86.66 9.38Q89.34 11.16 89.34 14.59L89.34 14.59L89.34 20.57Q89.34 21.87 89.35 22.75Q89.37 23.62 89.42 24.37Q89.48 25.13 89.58 26L89.58 26L83.11 26L82.97 24.46Q81.74 25.48 79.92 25.91Q78.10 26.35 75.97 26.35ZM74.64 20.71L74.64 20.71Q74.64 21.41 75.28 21.85Q75.93 22.29 77.44 22.29L77.44 22.29Q78.70 22.29 79.87 22.04Q81.04 21.80 81.79 21.20Q82.55 20.61 82.55 19.59L82.55 19.59L82.55 18.37L76.74 19.11Q75.76 19.24 75.20 19.59Q74.64 19.95 74.64 20.71ZM99.59 26L92.80 26L92.80 8.01L99.49 8.01L99.49 9.72Q101.73 7.59 106.07 7.59L106.07 7.59Q107.50 7.59 109.01 7.90Q110.51 8.22 111.77 9.01Q113.03 9.79 113.82 11.18Q114.61 12.56 114.61 14.66L114.61 14.66L114.61 26L107.82 26L107.82 15.36Q107.82 13.75 106.70 13.03Q105.58 12.31 103.72 12.31L103.72 12.31Q101.87 12.31 100.75 13.03Q99.63 13.75 99.59 15.36L99.59 15.36L99.59 26ZM129.38 26.42L129.38 26.42Q127.03 26.42 124.86 25.81Q122.69 25.20 120.96 24.00Q119.23 22.81 118.21 21.06Q117.20 19.31 117.20 17.00L117.20 17.00Q117.20 13.92 118.84 11.82Q120.49 9.72 123.27 8.66Q126.05 7.59 129.38 7.59L129.38 7.59Q132.04 7.59 134.40 8.31Q136.76 9.02 138.42 10.55Q140.09 12.07 140.61 14.48L140.61 14.48L134.31 15.15Q133.79 13.82 132.54 13.01Q131.30 12.21 129.34 12.21L129.34 12.21Q126.89 12.21 125.46 13.49Q124.02 14.76 124.02 16.83L124.02 16.83L124.02 17.18Q124.02 19.21 125.46 20.50Q126.89 21.80 129.34 21.80L129.34 21.80Q131.30 21.80 132.54 20.99Q133.79 20.19 134.31 18.86L134.31 18.86L140.61 19.52Q140.09 21.94 138.42 23.46Q136.76 24.98 134.40 25.70Q132.04 26.42 129.38 26.42ZM149.96 5.70L143.24 5.70L143.24 0.80L149.96 0.80L149.96 5.70ZM149.96 26L143.17 26L143.17 8.01L149.96 8.01L149.96 26ZM165.04 26.42L165.04 26.42Q162.63 26.42 160.42 25.81Q158.22 25.20 156.48 24.00Q154.75 22.81 153.75 21.06Q152.76 19.31 152.76 17.00L152.76 17.00Q152.76 13.92 154.38 11.82Q156.01 9.72 158.81 8.66Q161.61 7.59 165.04 7.59L165.04 7.59Q168.47 7.59 171.25 8.66Q174.04 9.72 175.66 11.82Q177.29 13.92 177.29 17.00L177.29 17.00Q177.29 19.31 176.29 21.06Q175.30 22.81 173.56 24.00Q171.83 25.20 169.63 25.81Q167.42 26.42 165.04 26.42ZM165.04 21.80L165.04 21.80Q167.49 21.80 168.98 20.52Q170.47 19.24 170.47 17.18L170.47 17.18L170.47 16.83Q170.47 14.73 168.98 13.47Q167.49 12.21 165.04 12.21L165.04 12.21Q162.59 12.21 161.09 13.47Q159.58 14.73 159.58 16.83L159.58 16.83L159.58 17.18Q159.58 19.24 161.09 20.52Q162.59 21.80 165.04 21.80ZM188.32 15.88L188.32 15.88Q185.76 15.88 183.82 14.90Q181.88 13.92 180.77 12.23Q179.67 10.53 179.67 8.32L179.67 8.32Q179.67 6.12 180.77 4.40Q181.88 2.69 183.82 1.71Q185.76 0.73 188.32 0.73L188.32 0.73Q190.87 0.73 192.83 1.71Q194.79 2.69 195.89 4.40Q197.00 6.12 197.00 8.32L197.00 8.32Q197.00 10.53 195.89 12.23Q194.79 13.92 192.85 14.90Q190.91 15.88 188.32 15.88ZM188.32 13.68L188.32 13.68Q191.15 13.68 192.78 12.17Q194.41 10.67 194.41 8.29L194.41 8.29Q194.41 5.91 192.76 4.42Q191.12 2.93 188.28 2.93L188.28 2.93Q185.52 2.93 183.89 4.42Q182.26 5.91 182.26 8.29L182.26 8.29Q182.26 10.67 183.91 12.17Q185.55 13.68 188.32 13.68ZM187.30 12.00L184.71 12.00L184.71 4.33L189.09 4.33Q190.87 4.33 191.69 5.05Q192.52 5.77 192.52 7.03L192.52 7.03Q192.52 8.74 190.84 9.34L190.84 9.34L192.55 12.00L189.79 12.00L188.46 9.72L187.30 9.72L187.30 12.00ZM188.70 6.26L188.70 6.26L187.30 6.26L187.30 7.97L188.70 7.97Q189.93 7.97 189.93 7.13L189.93 7.13Q189.93 6.26 188.70 6.26Z"/></g>
        
      </svg>
    